<?xml version="1.0" encoding="iso-8859-1"?>
<!-- Generator: Adobe Illustrator 19.0.0, SVG Export Plug-In . SVG Version: 6.00 Build 0)  -->
<!-- License: CC0. Made by SVG Repo: https://www.svgrepo.com/svg/286775/arrow-back -->
<svg version="1.1" id="Layer_1" xmlns="http://www.w3.org/2000/svg" xmlns:xlink="http://www.w3.org/1999/xlink" x="0px" y="0px"
	 viewBox="0 0 511.999 511.999" style="enable-background:new 0 0 511.999 511.999;" xml:space="preserve">
<path style="fill:#E57568;" d="M503.671,255.999c0-136.785-110.886-247.671-247.672-247.671S8.329,119.215,8.329,255.999
	s110.886,247.672,247.671,247.672S503.671,392.785,503.671,255.999z"/>
<path style="fill:#FFFFFF;" d="M387.613,161.977l-46.736,90.081c-1.282,2.471-1.282,5.412,0,7.883l46.736,90.081
	c3.645,7.025-3.38,14.808-10.741,11.902L128.81,263.96c-7.22-2.851-7.22-13.069,0-15.92l248.063-97.964
	C384.233,147.169,391.257,154.953,387.613,161.977z"/>
<path style="opacity:0.1;enable-background:new    ;" d="M74.96,255.999c0-125.485,93.327-229.158,214.356-245.433
	c-10.899-1.466-22.016-2.238-33.316-2.238C119.215,8.329,8.329,119.215,8.329,255.999S119.215,503.67,256.001,503.67
	c11.3,0,22.417-0.772,33.316-2.238C168.288,485.159,74.96,381.486,74.96,255.999z"/>
<path d="M473.568,374.697c-3.958-2.34-9.066-1.028-11.408,2.931c-20.813,35.199-50.48,64.69-85.795,85.284
	c-36.381,21.215-78.001,32.431-120.364,32.431c-63.931,0-124.035-24.896-169.24-70.102c-45.207-45.206-70.103-105.31-70.103-169.241
	c0-40.703,10.413-80.914,30.115-116.284c2.239-4.019,0.796-9.091-3.223-11.33c-4.017-2.238-9.092-0.795-11.328,3.224
	C11.142,169.453,0,212.467,0,255.999c0,68.381,26.629,132.667,74.98,181.019c48.352,48.352,112.641,74.98,181.02,74.98
	c45.308,0,89.832-11.998,128.755-34.698c37.762-22.023,69.486-53.557,91.742-91.196C478.84,382.146,477.527,377.039,473.568,374.697
	z"/>
<path d="M255.999,0c-40.886,0-79.961,9.355-116.139,27.805c-34.496,17.594-65.08,43.286-88.446,74.3
	c-2.767,3.675-2.033,8.896,1.641,11.664c3.675,2.769,8.898,2.034,11.664-1.64c21.853-29.006,50.453-53.033,82.711-69.483
	c33.809-17.244,70.338-25.987,108.568-25.987c63.93,0,124.033,24.896,169.24,70.102s70.102,105.31,70.102,169.24
	c0,31.632-6.086,62.385-18.089,91.405c-1.758,4.251,0.262,9.122,4.513,10.88c1.042,0.431,2.119,0.634,3.179,0.634
	c3.269,0,6.372-1.938,7.7-5.147c12.842-31.049,19.354-63.944,19.354-97.773c0-68.38-26.629-132.667-74.982-181.019
	C388.666,26.629,324.38,0,255.999,0z"/>
<path d="M131.868,255.786l124.176-49.039c4.279-1.689,6.377-6.528,4.688-10.805c-1.689-4.28-6.531-6.377-10.805-4.688
	L125.75,240.293c-6.491,2.563-10.684,8.729-10.684,15.707c0,6.979,4.194,13.143,10.684,15.706l248.063,97.964
	c2.051,0.81,4.172,1.203,6.266,1.203c4.663,0,9.185-1.951,12.476-5.597c4.766-5.282,5.728-12.775,2.452-19.09l-46.736-90.081
	c-0.033-0.067-0.033-0.145,0-0.211l46.736-90.081c3.276-6.316,2.314-13.808-2.453-19.09c-4.765-5.283-12.124-7.009-18.74-4.393
	l-90.11,35.586c-4.279,1.689-6.377,6.528-4.688,10.805c1.689,4.279,6.529,6.377,10.805,4.688l90.11-35.586
	c0.074-0.03,0.12-0.039,0.124-0.043c0.082,0.033,0.205,0.171,0.221,0.22c0,0-0.008,0.047-0.058,0.142l-46.738,90.082
	c-2.524,4.87-2.524,10.684,0.001,15.553l46.736,90.083c0.037,0.071,0.051,0.114,0.057,0.119c-0.026,0.086-0.15,0.221-0.198,0.242
	c0,0-0.047-0.002-0.148-0.043l-248.063-97.965c-0.074-0.029-0.113-0.052-0.113-0.052c-0.042-0.074-0.041-0.258-0.019-0.307
	C131.738,255.853,131.772,255.825,131.868,255.786z"/>
</svg>
