<?xml version="1.0" encoding="iso-8859-1"?>
<svg version="1.1" id="Capa_1" xmlns="http://www.w3.org/2000/svg" xmlns:xlink="http://www.w3.org/1999/xlink" x="0px" y="0px"
	 viewBox="0 0 457.391 457.391" style="enable-background:new 0 0 457.391 457.391;" xml:space="preserve">
<g>
	<path style="fill:#668df2;" d="M435.089,237.692c-0.583-0.923-1.27-1.799-2.075-2.604L312.225,114.299
		c-2.238-2.238-5.603-2.907-8.527-1.696c-2.924,1.211-4.83,4.064-4.83,7.228v30.609l0,0.001v15.999c0,4.321-3.503,7.824-7.824,7.824
		H35.002c-8.285,0-15.002,6.717-15.002,15.002v96.86c0,8.285,6.717,15.002,15.002,15.002h256.041c4.321,0,7.824,3.503,7.824,7.824
		v46.608c0,3.165,1.906,6.018,4.83,7.229c0.968,0.401,1.985,0.596,2.993,0.596c2.036,0,4.037-0.795,5.534-2.292l120.789-120.789
		C433.82,239.497,434.504,238.617,435.089,237.692z"/>
	<path style="fill:white;" d="M306.69,95.007c2.036,0,4.038,0.795,5.534,2.292l120.789,120.789c5.859,5.859,5.859,15.357,0,21.216
		L312.225,360.093c-1.497,1.497-3.498,2.292-5.534,2.292c-1.008,0-2.025-0.195-2.993-0.596c-2.924-1.211-4.83-4.064-4.83-7.229
		v-46.608c0-4.321-3.503-7.824-7.824-7.824H35.002c-8.285,0-15.002-6.717-15.002-15.002v-112.86c0-8.285,6.717-15.002,15.002-15.002
		h256.041c4.321,0,7.824-3.503,7.824-7.824v-46.608c0-3.165,1.906-6.018,4.83-7.229C304.666,95.202,305.682,95.007,306.69,95.007
		 M306.69,75.007c-3.671,0-7.253,0.713-10.646,2.118c-10.434,4.322-17.176,14.412-17.176,25.706v34.432H35.002
		C15.702,137.264,0,152.966,0,172.266v112.86c0,19.3,15.702,35.002,35.002,35.002h243.866v34.432
		c0,11.294,6.742,21.384,17.176,25.706c3.394,1.406,6.976,2.118,10.646,2.118c7.433,0,14.421-2.895,19.677-8.15l120.789-120.789
		c13.647-13.647,13.647-35.853,0-49.5L326.367,83.157C321.111,77.901,314.123,75.007,306.69,75.007L306.69,75.007z"/>
</g>
</svg>
