<?xml version="1.0" encoding="UTF-8" standalone="no"?>
<svg
   xmlns:dc="http://purl.org/dc/elements/1.1/"
   xmlns:cc="http://creativecommons.org/ns#"
   xmlns:rdf="http://www.w3.org/1999/02/22-rdf-syntax-ns#"
   xmlns:svg="http://www.w3.org/2000/svg"
   xmlns="http://www.w3.org/2000/svg"
   xmlns:sodipodi="http://sodipodi.sourceforge.net/DTD/sodipodi-0.dtd"
   xmlns:inkscape="http://www.inkscape.org/namespaces/inkscape"
   width="360mm"
   height="200mm"
   viewBox="0 0 360 200"
   version="1.1"
   id="svg8"
   sodipodi:docname="spiral.svg"
   inkscape:version="1.0.2 (e86c870879, 2021-01-15)">
  <defs
     id="defs2">
    <inkscape:path-effect
       effect="bspline"
       id="path-effect923"
       is_visible="true"
       lpeversion="1"
       weight="33.333333"
       steps="2"
       helper_size="0"
       apply_no_weight="true"
       apply_with_weight="true"
       only_selected="false" />
    <inkscape:path-effect
       effect="bspline"
       id="path-effect60" />
    <inkscape:path-effect
       effect="bspline"
       id="path-effect1043"
       is_visible="true"
       lpeversion="1"
       weight="33.333333"
       steps="2"
       helper_size="0"
       apply_no_weight="true"
       apply_with_weight="true"
       only_selected="false" />
    <inkscape:path-effect
       effect="bspline"
       id="path-effect90"
       is_visible="true"
       lpeversion="1"
       weight="33.333333"
       steps="2"
       helper_size="0"
       apply_no_weight="true"
       apply_with_weight="true"
       only_selected="false" />
    <inkscape:path-effect
       effect="bspline"
       id="path-effect865"
       is_visible="true"
       lpeversion="1"
       weight="33.333333"
       steps="2"
       helper_size="0"
       apply_no_weight="true"
       apply_with_weight="true"
       only_selected="false" />
  </defs>
  <sodipodi:namedview
     id="base"
     pagecolor="#ffffff"
     bordercolor="#666666"
     borderopacity="1.0"
     inkscape:pageopacity="0.0"
     inkscape:pageshadow="2"
     inkscape:zoom="0.76206965"
     inkscape:cx="542.41744"
     inkscape:cy="75.856766"
     inkscape:document-units="mm"
     inkscape:current-layer="g1240"
     inkscape:document-rotation="0"
     showgrid="false"
     inkscape:snap-object-midpoints="true"
     inkscape:snap-bbox="true"
     inkscape:bbox-nodes="true"
     inkscape:snap-bbox-edge-midpoints="true"
     inkscape:window-width="2560"
     inkscape:window-height="1600"
     inkscape:window-x="152"
     inkscape:window-y="69"
     inkscape:window-maximized="0" />
  <metadata
     id="metadata5">
    <rdf:RDF>
      <cc:Work
         rdf:about="">
        <dc:format>image/svg+xml</dc:format>
        <dc:type
           rdf:resource="http://purl.org/dc/dcmitype/StillImage" />
        <dc:title></dc:title>
      </cc:Work>
    </rdf:RDF>
  </metadata>
  <g
     inkscape:label="Layer 1"
     inkscape:groupmode="layer"
     id="layer1">
    <g
       id="g1240">
      <path
         id="path851"
         style="color:#000000;font-style:normal;font-variant:normal;font-weight:normal;font-stretch:normal;font-size:medium;line-height:normal;font-family:sans-serif;font-variant-ligatures:normal;font-variant-position:normal;font-variant-caps:normal;font-variant-numeric:normal;font-variant-alternates:normal;font-variant-east-asian:normal;font-feature-settings:normal;font-variation-settings:normal;text-indent:0;text-align:start;text-decoration:none;text-decoration-line:none;text-decoration-style:solid;text-decoration-color:#000000;letter-spacing:normal;word-spacing:normal;text-transform:none;writing-mode:lr-tb;direction:ltr;text-orientation:mixed;dominant-baseline:auto;baseline-shift:baseline;text-anchor:start;white-space:normal;shape-padding:0;shape-margin:0;inline-size:0;clip-rule:nonzero;display:inline;overflow:visible;visibility:visible;opacity:1;isolation:auto;mix-blend-mode:normal;color-interpolation:sRGB;color-interpolation-filters:linearRGB;solid-color:#000000;solid-opacity:1;vector-effect:none;fill:#000000;fill-opacity:1;fill-rule:evenodd;stroke:none;stroke-linecap:butt;stroke-linejoin:round;stroke-miterlimit:4;stroke-dasharray:none;stroke-dashoffset:0;stroke-opacity:1;paint-order:markers stroke fill;color-rendering:auto;image-rendering:auto;shape-rendering:auto;text-rendering:auto;enable-background:accumulate;stop-color:#000000;stop-opacity:1"
         d="m 33.283102,153.03096 c -7.214373,-0.15945 -13.20897,5.04253 -13.355469,11.27344 -0.162105,6.89453 6.572877,12.39492 14.318359,12.49609 a 0.69654468,0.69654468 0 0 0 0.002,0 c 0.245933,0.003 0.523363,0.007 1.53125,-0.0312 1.007538,-0.0379 2.796407,-0.11327 4.660157,-0.6289 1.864229,-0.51577 3.646289,-1.3106 4.599609,-1.17578 0.476026,0.0673 0.968235,0.37114 1.623047,0.69531 0.654811,0.32416 1.515802,0.62824 2.558594,0.41992 1.042752,-0.2083 2.101796,-0.81001 3.267578,-1.35742 1.165781,-0.54742 2.40674,-1.04507 3.61914,-1.13477 2.424794,-0.17939 5.289947,1.29632 8.22461,2.20899 2.934639,0.91265 5.791943,1.1309 8.404296,0.94922 2.612342,-0.18167 5.00772,-0.76842 7.47461,-1.80078 2.466883,-1.03236 4.868979,-2.35845 6.99414,-2.03321 2.125208,0.32524 4.551488,2.46298 7.417968,3.68555 2.86645,1.22255 6.023179,1.32732 9.470709,0.73437 3.44752,-0.59295 7.18471,-1.86843 10.22266,-2.59179 3.03797,-0.72336 5.34537,-0.90801 7.8457,-0.24805 2.50035,0.65997 5.36693,2.28538 8.81446,2.73242 3.52704,0.45735 7.34732,-0.92862 10.17382,-2.03515 0.68173,-0.26689 3.02819,-1.3762 5.78907,-2.61524 2.76087,-1.23903 5.86523,-2.5805 7.67578,-3.17773 0.20599,-0.0679 0.9873,-0.15475 1.96094,-0.16602 0.97363,-0.0113 2.18484,0.0225 3.47461,0.0781 2.57953,0.11118 5.46988,0.30501 7.50195,0.36719 2.21867,0.0679 4.26547,-0.258 5.92578,-0.53125 1.66031,-0.27325 2.98763,-0.42244 3.42578,-0.28906 2.8871,0.87888 6.02721,2.57589 8.375,3.75585 2.34772,1.17994 3.86731,1.81401 5.4082,2.47266 1.54092,0.65865 3.15353,1.36321 5.17188,2.08204 2.01827,0.71878 4.43467,1.4522 6.63086,1.82421 2.19601,0.37198 4.22372,0.39716 5.9668,-0.46093 1.74284,-0.85799 2.94106,-2.38806 4.71484,-3.52734 1.77381,-1.13934 4.26004,-2.02413 6.40234,-2.45704 2.14247,-0.43293 3.94918,-0.43082 5.58008,-0.22656 1.63113,0.20429 3.1255,0.62701 4.91406,0.8711 1.78837,0.24405 3.77996,0.29306 5.3125,0.26757 1.53243,-0.0255 2.69692,-0.10281 3.66016,-0.6875 0.96297,-0.58453 1.47627,-1.53133 1.8125,-2.17773 0.33628,-0.64651 0.52427,-1.10248 0.69922,-1.52735 l -1.28711,-0.53125 c -0.17495,0.42487 -0.33507,0.81732 -0.64648,1.41602 -0.31148,0.5988 -0.74688,1.29463 -1.30079,1.63086 -0.55363,0.33606 -1.47914,0.45969 -2.96093,0.48437 -1.4817,0.0246 -3.42734,-0.0274 -5.10157,-0.25586 -1.67403,-0.22845 -3.17008,-0.65291 -4.92773,-0.87304 -1.75788,-0.22017 -3.73792,-0.21928 -6.03125,0.24414 -2.29348,0.46345 -4.88896,1.37223 -6.87891,2.65039 -1.99,1.27818 -3.23259,2.78779 -4.57617,3.44922 -1.34334,0.66131 -3.05539,0.68746 -5.11914,0.33789 -2.06357,-0.34955 -4.42858,-1.06087 -6.39648,-1.76172 -1.96783,-0.70082 -3.54339,-1.39088 -5.0918,-2.05273 -1.54843,-0.66187 -3.01888,-1.27397 -5.33008,-2.43555 -2.31115,-1.16156 -5.50111,-2.9023 -8.59375,-3.84375 -1.10337,-0.33589 -2.40577,-0.0259 -4.05859,0.24609 -1.65282,0.27202 -3.60077,0.57657 -5.65625,0.51367 -1.98374,-0.0607 -4.88037,-0.253 -7.48438,-0.36523 -1.302,-0.0561 -2.53093,-0.0919 -3.55078,-0.0801 -1.01985,0.0118 -1.78514,0.0398 -2.38086,0.23633 -1.94626,0.64199 -5.03746,1.98595 -7.81054,3.23047 -2.77309,1.2445 -5.29808,2.41818 -5.72657,2.58593 -2.78767,1.09133 -6.45833,2.34576 -9.48633,1.95312 -3.1075,-0.40295 -5.86684,-1.96759 -8.63867,-2.69922 -2.77188,-0.73163 -5.38005,-0.50822 -8.52343,0.24024 -3.14339,0.74846 -6.85494,2.00977 -10.13672,2.57422 -3.28179,0.56443 -6.135409,0.44673 -8.689469,-0.64258 -2.55401,-1.0893 -4.958556,-3.35375 -7.75195,-3.78125 -2.793438,-0.42751 -5.396946,1.14355 -7.742188,2.125 -2.345233,0.98145 -4.567555,1.52384 -7.033203,1.69531 -2.465634,0.17148 -5.146695,-0.0335 -7.896484,-0.88867 -2.749763,-0.85517 -5.714355,-2.4913 -8.738281,-2.26757 -1.511962,0.11186 -2.899015,0.69336 -4.109375,1.26171 -1.21036,0.56835 -2.27577,1.11781 -2.947266,1.25195 -0.671456,0.13414 -1.114178,-0.0276 -1.669922,-0.30273 -0.555743,-0.27512 -1.182189,-0.7022 -2.044922,-0.82422 -1.724196,-0.24384 -3.490844,0.74748 -5.166015,1.21094 -1.675649,0.46359 -3.344018,0.5426 -4.339844,0.58008 a 0.69654468,0.69654468 0 0 0 -0.002,0 c -0.995477,0.0377 -1.213259,0.0343 -1.462891,0.0312 -7.097886,-0.0927 -13.083453,-5.11193 -12.943359,-11.07031 0.125701,-5.34631 5.403505,-10.05835 11.931641,-9.91406 5.802494,0.12825 10.66712,4.25656 10.480468,9.10351 -0.1633,4.24054 -4.402798,7.99889 -9.630859,7.8125 -2.253806,-0.0804 -4.346463,-0.94177 -5.818359,-2.24609 -1.471897,-1.30433 -2.318958,-3.01597 -2.203126,-4.88282 0.194586,-3.13608 3.400856,-5.94718 7.326172,-5.71874 1.606768,0.0935 3.099761,0.7399 4.125,1.68554 1.02524,0.94564 1.579847,2.14874 1.44336,3.45703 -0.21223,2.03431 -2.392643,3.91037 -5.007813,3.64063 -0.960072,-0.099 -1.859727,-0.53352 -2.441406,-1.11719 -0.581679,-0.58367 -0.848088,-1.26116 -0.697266,-2.00586 0.189724,-0.93678 1.367725,-1.91051 2.638672,-1.60938 0.301812,0.0715 0.65329,0.29884 0.808594,0.50586 0.155304,0.20703 0.176923,0.2422 0.05664,0.41797 0.101607,-0.14848 -0.127101,0.0574 -0.210938,0.0723 -0.04192,0.007 -0.02922,-0.0207 0.08008,0.0352 0.109303,0.0559 0.209621,0.2651 0.210938,0.29492 l -1.390625,0.0605 c 0.01483,0.33581 0.242989,0.7304 0.544922,0.88477 0.301932,0.15437 0.571077,0.13572 0.796875,0.0957 0.451595,-0.08 0.805957,-0.1986 1.11914,-0.65625 0.453077,-0.66209 0.300983,-1.51483 -0.09375,-2.04102 -0.394733,-0.52618 -0.970188,-0.87579 -1.601562,-1.02538 -2.067555,-0.48988 -3.965128,0.91444 -4.324219,2.68749 -0.251881,1.2437 0.240714,2.42927 1.076172,3.26758 0.835458,0.83832 2.010796,1.38614 3.285156,1.51758 3.341123,0.34463 6.233308,-1.98751 6.535156,-4.88086 0.186971,-1.79219 -0.60184,-3.44168 -1.884765,-4.625 -1.282926,-1.18331 -3.061722,-1.94073 -4.986328,-2.05273 -4.628618,-0.26936 -8.550134,3.01528 -8.798828,7.02343 -0.145363,2.34278 0.938341,4.47728 2.669921,6.01172 1.73158,1.53445 4.117043,2.50393 6.691407,2.5957 5.920562,0.21108 10.875089,-4.03212 11.072265,-9.15234 0.222942,-5.78932 -5.392462,-10.40632 -11.839843,-10.54882 z" />
      <path
         style="fill:none;stroke:#000000;stroke-width:0.264583px;stroke-linecap:butt;stroke-linejoin:miter;stroke-opacity:1"
         d="m 207.4074,129.79166 c -2.93401,1.10419 -5.86816,2.20844 -9.08619,1.9719 -3.21803,-0.23654 -6.71999,-1.81401 -11.16863,-1.78254 -4.44864,0.0315 -9.84354,1.67203 -14.85992,1.4828 -5.01638,-0.18922 -9.6541,-2.20837 -13.58223,-1.82982 -3.92813,0.37854 -7.14614,3.15487 -11.45259,3.32844 -4.30645,0.17358 -9.70134,-2.2557 -14.68638,-1.90872 -4.98504,0.34699 -9.55967,3.47036 -13.53485,3.78596 -3.97519,0.3156 -7.35095,-2.17678 -12.35169,-2.94987 -5.00074,-0.77308 -11.626068,0.17339 -16.973744,-0.22092 -5.347676,-0.3943 -9.417514,-2.12949 -14.244777,-1.86139 -4.827264,0.2681 -10.411457,2.53963 -15.963102,3.67545 -5.551645,1.13582 -11.070533,1.13582 -14.918532,-0.0787 -3.847999,-1.21455 -6.024886,-3.64384 -10.189377,-4.432 -4.16449,-0.78817 -10.316263,0.0651 -15.726897,-0.013 -5.410634,-0.0781 -10.0799102,-1.08768 -11.7364384,-4.11645 -1.6565281,-3.02877 -0.2999206,-8.07662 1.2933597,-12.24283 1.5932804,-4.16621 3.4231287,-7.45043 6.7676147,-9.09262 3.344485,-1.64219 8.203057,-1.64219 12.0995,-1.40553 3.896442,0.23665 6.83051,0.70989 9.464922,1.972 2.634412,1.26211 4.969048,3.31281 6.136246,6.13655 1.167199,2.82375 1.167199,6.42035 -1.135913,9.18082 -2.303112,2.76047 -6.909272,4.68496 -11.846782,5.39487 -4.93751,0.70991 -10.206219,0.20513 -13.014279,-1.64043 -2.80806,-1.84556 -3.155099,-5.03203 -1.309386,-8.02946 1.845714,-2.99742 5.884002,-5.8053 9.796326,-7.06725 3.912324,-1.26196 7.698218,-0.97802 9.843477,1.37262 2.14526,2.35064 2.650039,6.76751 2.839453,8.97584 0.189413,2.20834 -7.256329,2.20834 -10.505954,1.81401 -3.249624,-0.39433 -5.962844,-1.18305 -6.27847,-2.50821 -0.315625,-1.32516 1.766612,-3.18656 3.89634,-4.29081 2.129727,-1.10426 4.306618,-1.4513 5.978788,-0.99366 1.672169,0.45764 2.839488,1.7196 2.05066,2.88679 -0.788827,1.16718 -3.533605,2.23985 -5.174131,2.76044 -1.640525,0.5206 -2.176857,0.48903 -1.940385,-0.25238 0.236473,-0.74142 1.246056,-2.19268 2.255696,-3.64402"
         id="path1041"
         inkscape:original-d="m 207.4074,129.79166 c -2.93389,1.10451 -5.86804,2.20876 -8.80245,3.31274 -3.50182,-1.57726 -7.00378,-3.15473 -10.50606,-4.73249 -5.39485,1.64089 -10.78975,3.28145 -16.18502,4.92178 -4.63765,-2.01896 -9.27537,-4.03811 -13.91345,-6.05757 -3.21788,2.7767 -6.43589,5.55303 -9.65422,8.32914 -5.39486,-2.42912 -10.78975,-4.8584 -16.18503,-7.288 -4.57454,3.12375 -9.14917,6.24712 -13.72415,9.37028 -3.37563,-2.49222 -6.75139,-4.9846 -10.1275,-7.47729 -6.6253,0.94677 -13.250625,1.89325 -19.876335,2.83947 -4.06974,-1.735 -8.13958,-3.47019 -12.20976,-5.20569 -5.58416,2.27189 -11.16835,4.54343 -16.752933,6.81474 -5.51884,2.7e-4 -11.037728,2.7e-4 -16.556998,0 -2.17671,-2.42912 -4.3536,-4.8584 -6.5308,-7.288 -6.151754,0.85358 -12.303528,1.70685 -18.455686,2.55988 -4.669195,-1.00934 -9.3384691,-2.01892 -14.0081001,-3.02877 1.356929,-5.0478 2.713538,-10.09565 4.069911,-15.14388 1.830189,-3.28409 3.6600391,-6.56831 5.4896621,-9.85287 4.859031,2.7e-4 9.717603,2.7e-4 14.576007,0 2.934446,0.47353 5.868514,0.94677 8.802376,1.41976 2.33498,2.05103 4.66962,4.10172 7.00403,6.15219 2.7e-4,3.59701 2.7e-4,7.19361 0,10.79003 -4.60609,1.92484 -9.212251,3.84933 -13.818774,5.7736 -5.268653,-0.50453 -10.537362,-1.00931 -15.806438,-1.51437 -0.346787,-3.18633 -0.693828,-6.3728 -1.041138,-9.5596 4.038716,-2.80772 8.077006,-5.61559 12.115111,-8.42379 3.786312,0.28422 7.572206,0.56816 11.357909,0.85185 0.50507,4.41732 1.00985,8.83419 1.51437,13.25089 -0.12593,2.7e-4 -7.571672,2.7e-4 -11.357909,0 -2.713062,-0.78849 -5.426282,-1.57721 -8.139819,-2.36621 2.082585,-1.86121 4.164822,-3.72261 6.246833,-5.58431 2.177243,-0.34679 4.354134,-0.69383 6.530803,-1.04114 1.167633,1.26228 2.334954,2.52424 3.502033,3.78597 -2.744623,1.07297 -5.4894,2.14564 -8.234494,3.21806 -0.536097,-0.0313 -1.072433,-0.0628 -1.609048,-0.0947 1.009885,-1.45104 2.019464,-2.9023 3.028802,-4.35385"
         inkscape:path-effect="#path-effect1043" />
      <path
         style="fill:none;stroke:#000000;stroke-width:0.264583px;stroke-linecap:butt;stroke-linejoin:miter;stroke-opacity:1"
         d="m 207.51465,117.93195 c 3.86667,-1.99488 7.73309,-3.99004 11.59923,-5.98546 3.7232,2.68205 7.44599,5.36372 11.16859,8.04518 4.00718,-0.94625 8.01393,-1.89272 12.0205,-2.83948 2.58739,-2.99702 5.17442,-5.99418 7.76123,-8.99167 5.39538,4.25957 10.79028,8.51869 16.18502,12.77764 4.6697,1.70399 9.33899,3.40765 14.00807,5.11108 2.52431,-4.1644 5.04822,-8.32889 7.57195,-12.49373 3.21841,2.6e-4 6.43644,2.6e-4 9.65427,0 2.87134,2.7136 5.74231,5.42683 8.61309,8.13985 4.73175,0.52423 9.46306,1.04818 14.19421,1.57187 4.22801,-1.64035 8.4556,-3.2809 12.68301,-4.92175 4.97409,-0.28905 9.94767,-0.57835 14.92112,-0.86793 3.56548,-1.45106 7.13053,-2.90232 10.69542,-4.35388 1.64086,5.17454 3.28141,10.3486 4.92172,15.5225 1.83018,-1.57725 3.66004,-3.15471 5.48966,-4.73246"
         id="path1045" />
      <path
         style="fill:none;stroke:#000000;stroke-width:1.265;stroke-linecap:butt;stroke-linejoin:miter;stroke-miterlimit:4;stroke-dasharray:none;stroke-opacity:1"
         d="m 337.1326,20.153792 c -0.50215,0 -1.00695,0 -1.75339,-0.11532 -0.74644,-0.11532 -1.73501,-0.346692 -3.44943,-0.462736 -1.71442,-0.116044 -4.15427,-0.116044 -5.90003,-0.116044 -1.74576,0 -2.79743,0 -3.86111,0.778509 -1.06368,0.778509 -2.13637,2.334957 -5.47927,3.396738 -3.34291,1.061781 -8.95877,1.629678 -12.64995,1.913745 -3.69118,0.284068 -5.45796,0.284068 -6.7092,0.07463 -1.25123,-0.209435 -1.9874,-0.630102 -3.22833,-1.271725 -1.24093,-0.641623 -2.98668,-1.503987 -4.95339,-2.765641 -1.96672,-1.261655 -4.15418,-2.923268 -5.9106,-3.755198 -1.75643,-0.83193 -3.08152,-0.83193 -5.04811,-0.83193 -1.9666,0 -4.57473,0 -6.85772,0.557135 -2.28298,0.557134 -4.23907,1.671896 -6.31093,2.923394 -2.07185,1.251498 -4.2593,2.639677 -6.25722,3.754386 -1.99792,1.114708 -3.80677,1.956034 -5.35199,2.387465 -1.54521,0.431431 -2.82823,0.452464 -4.00607,0.463002 -1.17783,0.01054 -2.25053,0.01054 -3.94385,-1.407761 -1.69332,-1.418298 -4.00696,-4.257774 -6.84615,-5.889106 -2.83918,-1.631332 -6.20449,-2.051996 -9.21238,-2.26251 -3.00789,-0.210515 -5.65808,-0.210515 -6.98449,-0.210515 -1.32642,0 -1.32642,0 -2.3279,0.4533 -1.00147,0.4533 -2.99438,1.355353 -5.03444,2.43843 -2.04006,1.083076 -4.12235,2.345068 -6.83562,3.571337 -2.71327,1.22627 -6.05754,2.416633 -8.32288,3.184243 -2.26533,0.767611 -3.44992,1.111893 -5.55158,0.654297 -2.10166,-0.457596 -5.1102,-1.714181 -7.10466,-2.49931 -1.99446,-0.785129 -2.95908,-1.092625 -4.77884,-1.960999 -1.81977,-0.868373 -4.47817,-2.289819 -8.00949,-2.947526 -3.53132,-0.657708 -7.90281,-0.545578 -10.09939,-0.489235 -2.19658,0.05634 -2.19658,0.05634 -3.23714,0.539837 -1.04056,0.483494 -3.12284,1.451018 -4.76319,2.124091 -1.64035,0.673072 -2.83924,1.051668 -3.81686,1.262191 -0.97761,0.210522 -1.73482,0.252589 -2.32422,0.347042 -0.58941,0.09445 -1.01007,0.241689 -1.61924,0.21082 -0.60916,-0.03087 -1.40842,-0.241201 -2.69169,-0.34678 -1.28326,-0.105578 -3.05005,-0.105578 -4.37198,0.359033 -1.32192,0.464611 -2.19697,1.394507 -3.80287,1.859788 -1.60589,0.465281 -3.9365,0.465281 -5.45246,-0.01883 -1.51595,-0.484105 -2.2074,-1.447942 -4.01073,-2.017567 -1.80334,-0.569625 -4.69529,-0.737272 -6.79002,-0.358371 -2.09473,0.378901 -3.3762,1.303242 -4.87003,2.186926 -1.49383,0.883684 -3.19597,1.724248 -5.12149,1.598087 -1.92553,-0.12616 -4.06421,-1.216463 -5.3716,-1.838557 -1.30739,-0.622094 -1.76609,-0.768047 -2.80307,-0.99028 -1.03698,-0.222233 -2.62293,-0.51438 -4.266339,-0.661891 -1.643407,-0.147511 -3.320808,-0.147511 -4.79803,0.364444 -1.477223,0.511954 -2.730849,1.523344 -4.465042,1.851299 -1.734193,0.327956 -3.851906,-0.03604 -5.429414,-0.680246 -1.577508,-0.644207 -2.502906,-1.526102 -3.820692,-1.716672 -1.317786,-0.190569 -2.995508,0.326017 -4.679217,0.844447 -2.020095,0.990569 -4.037749,1.979942 -5.567141,2.644839 -1.529391,0.664898 -2.562564,1.001924 -3.875436,1.170934 -1.312873,0.169011 -2.898501,0.169011 -4.198805,0.169011 -1.300304,0 -2.306528,0 -4.002285,-0.644741 -1.695758,-0.64474 -4.054747,-1.923225 -6.063609,-2.539833 -2.008862,-0.616608 -3.627233,-0.558495 -5.768428,-0.597661 -2.141195,-0.03917 -4.781628,-0.175504 -7.420159,0.459945 -2.63853,0.635449 -5.262922,2.04093 -7.496095,2.957063 -2.233172,0.916132 -4.067958,1.340083 -6.582693,1.531193 -2.514736,0.19111 -5.695852,0.14838 -8.66894,0.04981 C 13.232186,29.73965 10.481094,29.585663 8.3757689,28.671064 6.2704438,27.756465 4.8221393,26.0875 3.8343464,24.292979 2.8465535,22.498458 2.3301291,20.59823 2.0611556,18.426852 1.7921822,16.255474 1.7731972,13.829689 2.18143,11.965036 2.5896628,10.100383 3.4231174,8.807672 4.4679362,7.6957402 5.512755,6.5838085 6.7633837,5.6583056 9.0489263,4.7388231 11.334469,3.8193406 14.635793,2.9133454 17.300972,2.3395997 c 2.66518,-0.5737456 4.664174,-0.80976 6.186307,-0.8218915 1.522133,-0.012131 2.525323,0.1999496 3.845422,1.7633001 1.320099,1.5633505 2.943876,4.4663894 3.683082,7.0355057 0.739205,2.569116 0.587595,4.778511 0.322076,6.513128 -0.26552,1.734617 -0.642644,2.97699 -1.424905,4.040464 -0.78226,1.063474 -1.969632,1.946871 -4.391325,2.830545 -2.421693,0.883674 -6.073694,1.766441 -8.659144,2.208331 -2.585451,0.44189 -4.0969,0.44189 -5.579392,-0.723155 C 9.8006009,24.020782 8.3565163,21.696954 7.6703386,19.497107 6.9841609,17.297259 7.0575067,15.22387 7.296463,13.665897 7.5354192,12.107923 7.9387141,11.070741 8.3839245,10.272469 8.8291348,9.4741973 9.3125189,8.9216383 11.238512,8.244712 c 1.925993,-0.6769263 5.283543,-1.4743429 7.738361,-1.716603 2.454817,-0.2422601 3.986745,0.07252 5.238299,1.2550886 1.251554,1.1825687 2.217884,3.2301664 2.375504,5.0070764 0.15762,1.77691 -0.493441,3.283096 -1.492321,4.657078 -0.99888,1.373982 -2.344521,2.614498 -3.764238,3.235029 -1.419717,0.620531 -2.910582,0.620531 -4.18846,0.651859 -1.277879,0.03133 -2.330545,0.09356 -3.553236,-1.51316 -1.222691,-1.606725 -2.595365,-4.858875 -1.67705,-6.720224 0.918316,-1.861348 4.125415,-2.318288 6.263281,-2.547778 2.137866,-0.229491 3.183315,-0.229491 3.721486,0.108403 0.53817,0.337894 0.559079,1.006958 0.275401,1.916878 -0.283678,0.90992 -0.869914,2.051148 -1.594774,2.80754 -0.72486,0.756391 -1.589123,1.128016 -2.304919,1.402557 -0.715796,0.274542 -1.274121,0.449072 -1.560761,0.0809 -0.28664,-0.368169 -0.28664,-1.258826 -0.28664,-2.165906"
         id="path921"
         sodipodi:nodetypes="ccccccccccccccccccccccccccccccccccccccccccccccccccccccccccccccccccccccccccccccccccccccccccccccc"
         inkscape:original-d="m 337.1326,20.153792 c -0.50215,0.003 -1.00695,0.003 -1.51439,0 -0.98589,-0.22872 -1.97446,-0.46009 -2.96564,-0.6941 -2.43721,0.003 -4.87706,0.003 -7.31956,0 -1.04902,0.003 -2.10069,0.003 -3.15497,0 -1.07006,1.5591 -2.14273,3.11556 -3.21808,4.66937 -5.61321,0.57054 -11.22907,1.13844 -16.84758,1.70369 -1.76414,0.003 -3.53092,0.003 -5.30037,0 -0.73351,-0.41802 -1.46968,-0.83868 -2.20848,-1.26199 -1.7431,-0.85972 -3.48885,-1.72208 -5.23724,-2.58709 -2.18482,-1.65897 -4.37227,-3.32059 -6.56238,-4.98485 -1.32244,0.003 -2.64753,0.003 -3.97526,0 -2.60546,0.003 -5.21359,0.003 -7.82434,0 -1.95344,1.1174 -3.90953,2.23216 -5.86824,3.34427 -2.18483,1.39083 -4.37227,2.77902 -6.56239,4.16457 -1.8062,0.84397 -3.61505,1.68529 -5.42655,2.52398 -1.28037,0.0237 -2.56339,0.0447 -3.84908,0.0631 -1.07002,0.003 -2.14272,0.003 -3.21806,0 -2.311,-2.83684 -4.62465,-5.67631 -6.94094,-8.51844 -3.36266,-0.41801 -6.72797,-0.83868 -10.09592,-1.26199 -2.64754,0.003 -5.29773,0.003 -7.95056,0 2.6e-4,2.65e-4 2.6e-4,2.65e-4 0,0 -2.00281,0.906918 -3.99572,1.808972 -5.99446,2.71328 -2.07964,1.26463 -4.16193,2.52662 -6.24686,3.78597 -3.34338,1.190405 -6.68765,2.380768 -10.0328,3.571086 -1.18554,0.344899 -2.37013,0.689183 -3.55675,1.033712 -3.01685,-1.259905 -6.02538,-2.516493 -9.04548,-3.778062 -0.96882,-0.308654 -1.93344,-0.61615 -2.90275,-0.925322 -2.67022,-1.427643 -5.32862,-2.849088 -7.99935,-4.277252 -4.39185,0.112923 -8.76334,0.225053 -13.15651,0.337468 2.6e-4,2.65e-4 2.6e-4,2.65e-4 0,0 -2.07964,0.97018 -4.16192,1.9377 -6.24685,2.90258 -1.19625,0.38124 -2.39514,0.75984 -3.59668,1.13579 -0.75454,0.0447 -1.51174,0.0868 -2.27158,0.1262 -0.41802,0.14988 -0.83868,0.29712 -1.26199,0.44171 -0.79661,-0.20769 -1.59587,-0.41802 -2.39778,-0.631 -1.76414,0.003 -3.53093,0.003 -5.30037,0 -0.87414,0.92948 -1.74919,1.859376 -2.62514,2.78968 -2.33611,2.64e-4 -4.66672,2.64e-4 -7.00405,0 -0.69453,-0.96825 -1.38598,-1.932084 -2.08228,-2.90258 -2.91043,-0.16847 -5.80238,-0.336117 -8.70774,-0.50479 -1.28387,0.926526 -2.56534,1.85087 -3.84907,2.77638 -1.70399,0.841876 -3.40613,1.682438 -5.11105,2.52398 -2.14634,-1.094079 -4.28502,-2.184383 -6.43615,-3.28116 -0.46365,-0.147349 -0.92235,-0.293302 -1.3882,-0.44171 -1.6081,-0.296013 -3.19405,-0.58816 -4.795568,-0.88339 -1.685258,2.64e-4 -3.362659,2.64e-4 -5.047959,0 -1.268911,1.024199 -2.522538,2.035588 -3.802146,3.067461 -2.189048,-0.376038 -4.306761,-0.740034 -6.506529,-1.118353 -0.955217,-0.9103 -1.880615,-1.792196 -2.826486,-2.693614 -1.689598,0.520589 -5.051126,1.555289 -5.051126,1.555289 0,0 -4.037593,1.98026 -6.060284,2.971708 -1.036145,0.338346 -2.069317,0.675372 -3.105646,1.013076 -1.58952,2.65e-4 -3.175148,2.65e-4 -4.765445,0 -1.010311,2.64e-4 -2.016535,2.64e-4 -3.02877,0 -2.37933,-1.289388 -4.73832,-2.567872 -7.121994,-3.859856 -1.633989,0.05895 -3.25236,0.117061 -4.883401,0.175355 -2.651372,-0.136651 -5.291805,-0.272988 -7.940397,-0.409997 -2.628287,1.407973 -5.252679,2.813454 -7.881103,4.220688 -1.838019,0.425024 -3.672805,0.848975 -5.512489,1.273733 -3.189861,-0.04259 -6.370977,-0.08532 -9.560374,-0.128418 C 13.232172,29.739901 10.48108,29.585914 7.7238715,29.431334 6.2704635,27.756448 4.822159,26.087483 3.3658815,24.40937 2.8467329,22.498409 2.3303084,20.598181 1.8112268,18.688884 1.7924447,16.255472 1.7734597,13.829687 1.7541526,11.396282 2.5899703,10.100581 3.423425,8.8078703 4.2584701,7.5120171 c 1.2545052,-0.927911 2.5051337,-1.853414 3.7603024,-2.782737 3.3157825,-0.909626 6.6171065,-1.815621 9.9307195,-2.725326 2.016694,-0.237808 4.015688,-0.473823 6.042651,-0.713435 1.017227,0.215257 2.020417,0.427338 3.031308,0.640839 1.629438,2.912951 3.253215,5.81599 4.884042,8.7318409 -0.152223,2.22245 -0.303834,4.431845 -0.4566,6.653978 -0.378238,1.247178 -0.755363,2.489551 -1.133257,3.733325 -1.186721,0.883375 -2.374093,1.766772 -3.562113,2.65019 -3.655512,0.883944 -7.307513,1.76671 -10.963782,2.65018 -1.514707,2.64e-4 -3.026156,2.65e-4 -4.543164,0 -1.4479039,-2.330135 -2.8919885,-4.653963 -4.3377578,-6.980341 0.073615,-2.073262 0.1469613,-4.146651 0.2201153,-6.222366 0.404804,-1.040118 0.808099,-2.0773 1.212842,-3.119152 C 8.8294161,9.4744433 9.3128001,8.9218843 9.7972861,8.3674983 13.164578,7.5680951 16.522129,6.7706791 19.893208,5.9697221 c 1.538441,0.316328 3.070368,0.631109 4.606266,0.946494 0.967366,2.0494962 1.933696,4.0970939 2.899905,6.1447309 -0.650764,1.506375 -1.301825,3.012561 -1.953411,4.519085 -1.34624,1.241577 -2.691881,2.482093 -4.038367,3.72288 -1.493201,2.64e-4 -2.984066,2.64e-4 -4.480068,0 -1.059738,0.06294 -2.112405,0.125172 -3.174948,0.187713 C 12.36986,18.2143 10.997186,14.96215 9.6190891,11.697516 c 3.2146399,-0.457712 6.4217389,-0.914651 9.6431249,-1.373929 1.054304,2.64e-4 2.099753,2.64e-4 3.154976,0 0.02137,0.67578 0.04228,1.344844 0.0631,2.019195 -0.588112,1.14566 -1.174348,2.286888 -1.761076,3.428293 -0.863172,0.371534 -1.727435,0.743159 -2.592793,1.114877 -0.566272,0.177362 -1.124597,0.351893 -1.697976,0.530782 2.65e-4,-0.915543 2.65e-4,-1.8062 0,-2.71328"
         inkscape:path-effect="#path-effect923" />
    </g>
  </g>
</svg>
