<?xml version="1.0" standalone="no"?>
<!DOCTYPE svg PUBLIC "-//W3C//DTD SVG 20010904//EN"
 "http://www.w3.org/TR/2001/REC-SVG-20010904/DTD/svg10.dtd">
<svg version="1.0" xmlns="http://www.w3.org/2000/svg"
 width="1929.000000pt" height="139.000000pt" viewBox="0 0 1929.000000 139.000000"
 preserveAspectRatio="xMidYMid meet">

<g transform="translate(0.000000,139.000000) scale(0.100000,-0.100000)"
fill="#000000" stroke="none">
<path d="M3916 1100 c-453 -29 -885 -105 -1606 -285 -495 -123 -672 -163 -925
-209 -428 -78 -795 -105 -1152 -86 -120 6 -221 14 -225 16 -5 3 -8 -31 -8 -75
0 -67 3 -81 18 -85 49 -16 326 -56 457 -67 178 -14 469 -7 635 16 250 34 556
105 975 225 671 192 1119 283 1630 332 208 19 822 17 1045 -5 410 -40 621 -75
1378 -227 946 -189 1144 -215 1632 -214 427 0 620 28 1005 143 679 203 961
269 1285 301 161 16 581 13 760 -5 403 -41 831 -125 1570 -310 1013 -253 1463
-323 2005 -312 272 6 403 19 615 63 194 40 276 71 675 254 489 225 738 304
1045 331 140 12 201 9 460 -17 302 -31 549 -64 850 -113 549 -89 789 -120
1068 -137 l112 -7 0 57 c0 31 -4 56 -8 56 -74 0 -507 66 -912 140 -680 124
-975 156 -1355 147 -441 -10 -722 -80 -1070 -268 -320 -173 -568 -264 -825
-305 -134 -21 -557 -30 -760 -15 -509 37 -837 99 -2025 385 -766 184 -1313
257 -1810 242 -420 -12 -753 -75 -1462 -275 -441 -124 -683 -161 -1073 -161
-448 0 -791 46 -1675 225 -752 153 -1108 210 -1450 234 -203 15 -717 21 -879
11z"/>
</g>
</svg>
